<svg width="101" height="70" viewBox="0 0 101 70" fill="none" xmlns="http://www.w3.org/2000/svg">
<g clip-path="url(#clip0_847_235)">
<path d="M41.7178 42.4223C42.168 44.0724 41.4457 45.3429 40.6283 46.427C39.4712 47.9198 38.1418 49.3049 36.7173 50.5036C30.0105 55.8537 22.2627 57.8579 13.7895 56.9816C11.6361 56.7511 9.48005 56.2085 7.09082 55.7461C7.5613 57.9735 9.35242 59.6429 9.9636 61.9158C8.94962 61.8468 8.49199 61.1798 8.09775 60.6372C6.48908 58.4044 4.89561 56.1246 3.36425 53.8131C2.63786 52.6959 2.74172 52.0552 3.85957 51.4834C6.17256 50.2612 8.63267 49.8647 11.1778 50.3258C11.2716 50.3561 11.3667 50.5425 11.5404 50.8063C10.3707 52.6582 7.94334 51.3534 6.44282 52.7868C9.43551 54.586 12.7132 55.0249 15.9884 55.1517C19.4194 55.2772 22.801 55.0753 26.0824 54.0629C29.3016 53.0823 32.1571 51.465 34.9478 49.5675C37.7703 47.7321 39.9488 45.325 41.7178 42.4223Z" fill="black"/>
</g>
<path d="M11.7293 13.3472C11.3834 13.1559 11.4955 12.7595 11.5709 12.4436C11.8367 11.3876 12.7642 10.0633 12.7457 9.03377C12.7089 7.50956 11.594 5.6609 11.5644 4.06708C11.5556 3.61568 12.4122 3.36786 12.6768 3.66314C13.3848 4.42733 13.0927 6.26888 13.7025 7.16353C14.3524 6.47167 14.5338 4.74518 15.4197 4.2189C15.9004 3.93156 16.6442 4.2209 16.3966 4.70165C15.8523 5.72838 15.0252 7.30255 14.4113 8.32196C14.2465 8.68472 14.2626 9.06651 14.4796 9.41308C14.5917 9.55156 14.4342 9.84471 14.3639 9.97809C14.15 10.1386 13.7799 10.0434 13.6224 10.3365C13.3338 11.2071 12.9896 12.3394 12.6467 13.1902C12.5706 13.3793 12.1544 13.5889 11.7293 13.3472ZM17.2361 11.2231C16.3478 10.5667 16.067 9.35469 16.4845 8.32871C16.7892 7.57242 17.3329 7.22133 17.541 6.84904C17.9542 6.1323 18.9054 6.45751 19.373 7.0979C19.6911 7.55365 19.8363 8.04753 19.9118 8.53409C20.0886 9.66476 19.4754 10.5435 18.6555 11.2456C18.3155 11.5337 17.5901 11.4715 17.2361 11.2231ZM17.8265 9.89155C18.8056 10.2197 19.0435 8.8933 18.378 7.9928C18.1054 7.64037 16.3997 9.40374 17.8265 9.89155ZM20.3839 8.35848C20.463 7.87409 20.4241 7.30691 20.871 7.07235C21.3803 6.91472 22.0618 7.12712 22.0106 7.61444C21.9155 8.51945 21.6797 9.42376 21.7238 10.3434C21.8045 10.915 21.8172 12.2677 22.3982 11.9628C23.682 11.2672 24.2152 9.4087 23.5202 7.98426C23.3465 7.62815 23.1962 7.04927 23.5604 6.9327C24.5775 6.63136 25.1712 7.94663 25.1252 8.78642C25.0456 10.4814 24.3695 12.4937 22.7831 12.9886C20.2954 13.7548 20.0457 10.2374 20.3839 8.35848ZM25.6907 9.59194C25.6803 8.887 25.08 8.03559 25.7651 7.54451C26.5271 6.99113 27.2747 7.91433 27.0404 8.80471C27.8904 8.75328 28.2237 7.59175 29.1829 7.97412C29.5164 8.14994 29.9319 8.34846 29.5971 8.7215C28.9582 9.44267 28.0862 9.70295 27.4276 10.4784C27.2034 10.7363 27.2848 11.1672 27.1163 11.431C26.9551 11.6252 26.9185 11.9733 27.1604 12.3507C27.4023 12.728 27.2595 13.4169 26.8748 13.7284C26.5525 14.1168 25.9259 14.051 25.684 13.6736C25.4898 13.5124 25.4978 13.3021 25.541 13.0251C25.7138 11.9171 25.7129 10.7204 25.6907 9.59194ZM32.7552 9.85583C32.8035 9.66383 32.5441 9.45356 32.6899 9.2718C33.1134 8.99254 32.785 8.36679 33.2628 8.1073C33.6665 7.88227 34.1318 7.87487 34.3488 8.22145C34.5232 8.43686 34.3511 8.86924 34.4705 8.9381C35.5991 9.18341 37.1747 9.72909 36.8935 11.065C36.5054 12.8824 34.5568 12.5368 33.2987 12.8551C32.9134 14.1097 32.9428 14.6336 33.1716 15.9387C33.1768 16.0237 33.3498 16.253 33.4282 16.4443C33.6247 16.9858 32.7336 16.8921 32.3584 16.7119C31.8622 16.4768 31.8951 15.7623 31.8855 15.1841C31.8295 13.306 32.3869 11.619 32.7552 9.85583ZM34.2238 10.0806C33.8237 10.4045 33.4487 11.5617 33.7389 11.747C34.2292 12.0379 35.3576 11.7482 35.581 10.8285C35.6931 10.4321 35.4292 10.2636 35.1705 10.1801C34.8789 10.0086 34.4252 9.90466 34.2238 10.0806ZM37.1861 11.1943C37.3031 9.81298 38.4249 8.91733 39.7689 9.25567C40.8388 9.52297 41.7176 10.6711 41.5807 11.8392C41.2877 12.4841 39.6683 12.8911 39.0865 13.3367C39.0294 13.3448 38.7641 13.4577 38.833 13.6057C39.2311 14.5062 40.1617 14.2239 40.9838 13.9021C41.447 14.3168 41.0947 15.1244 40.515 15.1479C39.8782 15.1796 39.1784 15.2749 38.5408 14.9123C37.2144 14.1394 37.0734 12.5339 37.1861 11.1943ZM38.6291 12.0639C39.2864 12.1048 39.9459 11.9912 40.225 11.3448C40.6045 10.6808 39.4869 10.1974 38.8992 10.4312C38.2529 10.6871 38.2978 12.0009 38.6291 12.0639ZM42.2654 11.334C42.2551 10.6291 41.6548 9.77766 42.3398 9.28658C43.1019 8.7332 43.8495 9.6564 43.6151 10.5468C44.4651 10.4954 44.7984 9.33382 45.7577 9.71619C46.0911 9.89201 46.5066 10.0905 46.1718 10.4636C45.5329 11.1847 44.6609 11.445 44.0023 12.2204C43.7781 12.4784 43.8595 12.9093 43.691 13.1731C43.5298 13.3673 43.4932 13.7154 43.7351 14.0928C43.977 14.4701 43.8342 15.159 43.4495 15.4704C43.1272 15.8589 42.5006 15.793 42.2587 15.4157C42.0645 15.2545 42.0726 15.0442 42.1157 14.7672C42.2885 13.6592 42.2876 12.4625 42.2654 11.334ZM49.2639 10.141C49.9154 10.5051 50.7193 10.7585 50.9832 11.462C51.0726 11.6825 50.8492 12.0673 50.6858 12.1486C49.9289 12.5196 49.1299 10.7463 48.0014 11.3034C47.5699 11.5255 48.143 12.2333 48.4112 12.36C49.2284 12.7556 49.8923 13.1351 50.4838 13.8026C50.8466 14.2349 50.6144 14.9706 50.2708 15.4272C49.4195 16.5625 46.7874 16.9615 46.1334 15.1472C45.9795 14.7369 46.4843 14.3536 46.8771 14.3667C47.2142 14.374 47.2003 14.9074 47.4517 15.0605C48.071 15.4635 49.2493 15.2354 49.3327 14.4418C49.3532 14.2468 49.0094 13.901 48.7566 13.7618C47.8676 13.2461 46.8204 12.8967 46.4729 11.917C46.047 10.7461 48.3874 9.64066 49.2639 10.141ZM52.1531 14.8931C51.2649 14.2366 50.984 13.0246 51.4016 11.9986C51.7063 11.2424 52.25 10.8913 52.458 10.519C52.8712 9.80223 53.8224 10.1274 54.29 10.7678C54.6081 11.2236 54.7533 11.7175 54.8289 12.204C55.0057 13.3347 54.3924 14.2134 53.5726 14.9156C53.2326 15.2036 52.5071 15.1414 52.1531 14.8931ZM52.7436 13.5615C53.7226 13.8896 53.9606 12.5632 53.2951 11.6627C53.0224 11.3103 51.3167 13.0737 52.7436 13.5615ZM55.3453 14.0179C55.4258 13.2522 55.3384 12.342 55.6424 11.7264C55.8534 11.3263 56.6456 11.4236 56.735 11.9117C56.7959 12.27 56.5366 12.5947 56.4985 12.9567C56.5484 13.0182 56.5989 13.2065 56.6063 13.1369C57.1462 12.4194 57.6561 11.5862 58.6279 11.9839C59.2634 13.3036 59.0328 14.8278 58.9546 16.2414C58.9854 16.4839 58.943 16.8877 58.699 16.9325C58.3267 16.9919 57.783 17.0755 57.7654 16.7076C57.7073 15.5191 57.9497 14.4184 57.8315 13.2657C57.0549 13.9583 56.8447 15.0202 56.1897 15.8945C55.9428 16.2345 55.3383 16.2273 55.2151 15.792C55.0758 15.2425 55.2838 14.6027 55.3453 14.0179ZM62.9939 18.1722C62.7733 17.9942 62.7959 17.6446 62.601 17.6241C61.6315 17.3392 60.5117 17.2778 60.0529 16.2864C59.7296 15.7457 59.9867 14.7732 60.383 14.3503C61.6703 12.9512 63.5838 13.631 63.616 13.5921C63.7618 13.4104 63.9112 12.7926 63.6107 12.7047C62.8083 12.4374 62.2536 12.7592 61.4893 12.9322C60.9119 13.0686 60.9051 11.9276 61.0436 11.8155C62.1178 11.2386 64.2334 11.0668 64.7223 12.4415C65.1549 13.6835 64.3622 14.7967 64.1286 16.0813C63.9837 16.9248 63.7055 18.7678 62.9939 18.1722ZM62.9203 16.4611C63.1202 15.7642 63.532 15.3289 63.3033 14.5587C62.4635 14.7802 61.0821 14.3957 60.9284 15.5901C60.8501 16.2013 62.7811 16.714 62.9203 16.4611ZM65.6866 12.9792C65.8455 11.8697 65.3785 10.5537 65.9682 9.6303C66.2898 9.1151 67.3487 9.08562 67.3181 9.91295C67.3174 10.0536 67.2046 10.3233 67.1899 10.4626C67.0875 11.4372 67.0334 12.4873 66.8768 13.4422C66.6323 14.9649 66.9168 16.5433 66.1315 17.8544C65.8912 18.2656 65.4053 18.2004 65.0235 17.9491C64.8293 17.7879 64.7823 17.4311 64.8951 17.1614C65.4438 15.8254 65.4648 14.4199 65.6866 12.9792ZM70.7471 18.6492C70.6107 18.6068 70.4854 18.3261 70.4319 18.1656C70.4163 16.8407 70.6997 15.6177 70.5448 14.2781C70.4847 14.0466 70.3066 13.7323 70.407 13.4472C70.4912 13.3153 70.6531 13.2478 70.7374 13.1159C70.8992 12.2461 70.795 11.3623 71.0836 10.4917C71.2264 10.0703 71.9357 9.48326 72.245 10.0225C72.9537 10.9135 71.6752 11.9616 72.1392 13.038C73.6774 13.2701 75.2171 14.0231 75.5647 15.5378C75.7788 16.4471 75.0733 17.4006 74.2951 17.8397C73.2026 18.4569 71.9628 19.0022 70.7471 18.6492ZM71.9098 17.3637C72.8639 17.3936 74.2063 16.9435 74.2714 15.9227C74.343 14.973 72.9081 14.1605 71.8771 14.1929C71.7702 15.2093 71.6546 16.3093 71.9098 17.3637ZM76.3531 14.9168C76.3427 14.2118 75.7424 13.3604 76.4275 12.8693C77.1895 12.316 77.9371 13.2392 77.7027 14.1295C78.5528 14.0781 78.886 12.9166 79.8453 13.2989C80.1787 13.4748 80.5943 13.6733 80.2594 14.0463C79.6206 14.7675 78.7486 15.0278 78.0899 15.8032C77.8657 16.0612 77.9471 16.492 77.7786 16.7559C77.6174 16.9501 77.5809 17.2982 77.8227 17.6755C78.0646 18.0529 77.9218 18.7417 77.5372 19.0532C77.2148 19.4416 76.5882 19.3758 76.3464 18.9984C76.1522 18.8372 76.1602 18.6269 76.2034 18.3499C76.3761 17.2419 76.3752 16.0453 76.3531 14.9168ZM83.3349 20.3101C83.1143 20.1321 83.137 19.7825 82.9421 19.7621C81.9725 19.4771 80.8528 19.4158 80.3939 18.4244C80.0707 17.8836 80.3277 16.9112 80.7241 16.4883C82.0114 15.0892 83.9249 15.7689 83.9571 15.7301C84.1029 15.5483 84.2523 14.9305 83.9518 14.8427C83.1494 14.5753 82.5947 14.8971 81.8304 15.0702C81.253 15.2065 81.2462 14.0656 81.3847 13.9534C82.4589 13.3766 84.5744 13.2048 85.0634 14.5794C85.496 15.8214 84.7033 16.9347 84.4697 18.2193C84.3247 19.0628 84.0466 20.9058 83.3349 20.3101ZM83.2614 18.5991C83.4613 17.9021 83.8731 17.4668 83.6443 16.6967C82.8046 16.9181 81.4232 16.5336 81.2695 17.7281C81.1912 18.3392 83.1222 18.8519 83.2614 18.5991ZM85.6257 17.2005C85.7062 16.4348 85.6189 15.5246 85.9229 14.909C86.1339 14.5089 86.926 14.6062 87.0155 15.0943C87.0764 15.4526 86.817 15.7773 86.779 16.1393C86.8288 16.2008 86.8794 16.3891 86.8867 16.3195C87.4267 15.602 87.9366 14.7688 88.9083 15.1665C89.5439 16.4862 89.3133 18.0104 89.2351 19.424C89.2659 19.6666 89.2235 20.0703 88.9795 20.1151C88.6072 20.1745 88.0635 20.2581 88.0458 19.8902C87.9878 18.7017 88.2302 17.601 88.112 16.4483C87.3353 17.1409 87.1252 18.2028 86.4702 19.0771C86.2233 19.4171 85.6188 19.4099 85.4956 18.9747C85.3563 18.4251 85.5643 17.7853 85.6257 17.2005ZM90.2356 17.5865C90.4185 15.8461 92.5905 15.8069 93.7533 15.0564C94.1167 14.813 94.0536 14.0744 94.3122 13.6229C94.5423 13.3093 94.9753 13.0732 95.2948 13.2476C95.4267 13.3318 95.725 13.5743 95.6415 13.833C94.6028 15.948 94.4192 18.3641 94.5757 20.7596C94.5625 20.8849 94.2064 21.0586 93.9975 21.0366C93.3915 21.0433 93.4837 20.1662 93.1569 20.0614C92.6139 20.0044 92.0548 20.1004 91.5762 19.6982C90.9422 19.167 90.1287 18.6029 90.2356 17.5865ZM91.6623 17.5394C91.6895 18.218 92.3851 18.9668 93.1508 18.7798C93.1104 17.9591 93.4525 17.2489 93.5359 16.4553C92.798 16.3777 91.6138 16.6615 91.6623 17.5394ZM29.0613 23.1003C29.7128 23.4644 30.5167 23.7178 30.7806 24.4212C30.87 24.6418 30.6466 25.0265 30.4832 25.1079C29.7263 25.4788 28.9273 23.7056 27.7988 24.2627C27.3673 24.4848 27.9404 25.1926 28.2086 25.3193C29.0258 25.7149 29.6897 26.0944 30.2812 26.7618C30.644 27.1941 30.4118 27.9299 30.0682 28.3865C29.2169 29.5217 26.5848 29.9208 25.9308 28.1065C25.7769 27.6961 26.2817 27.3128 26.6745 27.3259C27.0116 27.3332 26.9977 27.8667 27.2491 28.0198C27.8684 28.4227 29.0467 28.1946 29.1301 27.401C29.1506 27.2061 28.8068 26.8603 28.554 26.7211C27.6651 26.2053 26.6178 25.856 26.2703 24.8763C25.8444 23.7053 28.1848 22.5999 29.0613 23.1003ZM33.2623 23.5418C33.3831 23.0618 33.515 22.6111 33.6204 22.1436C33.7603 21.4826 34.6374 21.5748 35.1314 21.9645C35.1937 22.0415 35.2414 22.2576 35.1513 22.4453C34.6553 23.28 34.4092 24.2818 34.3097 25.2285C35.0689 25.2379 36.5814 25.045 36.2246 25.8943C35.9441 26.5546 34.7012 26.3255 33.9633 26.2479C33.7458 27.1119 33.8028 30.9891 33.6549 31.8604C33.6132 32.1235 33.3963 32.3119 33.1178 32.2826C32.7837 32.2475 32.6547 32.1354 32.5799 31.7756C32.3709 30.9512 32.8788 26.9222 32.5526 26.1419C31.9811 26.49 30.9435 26.7188 30.758 25.9392C30.7089 25.7369 30.947 25.4804 31.1705 25.3631C31.7274 25.1542 32.4719 25.3028 32.8485 24.9342C33.1482 24.6278 33.1429 24.0079 33.2623 23.5418ZM39.3784 30.7727C39.1578 30.5947 39.1805 30.2452 38.9856 30.2247C38.016 29.9398 36.8963 29.8784 36.4374 28.887C36.1142 28.3462 36.3712 27.3738 36.7676 26.9509C38.0549 25.5518 39.9683 26.2315 40.0006 26.1927C40.1464 26.0109 40.2958 25.3931 39.9953 25.3053C39.1929 25.0379 38.6382 25.3597 37.8739 25.5328C37.2965 25.6692 37.2897 24.5282 37.4282 24.4161C38.5024 23.8392 40.6179 23.6674 41.1069 25.042C41.5395 26.284 40.7468 27.3973 40.5132 28.6819C40.3682 29.5254 40.0901 31.3684 39.3784 30.7727ZM39.3049 29.0617C39.5048 28.3648 39.9166 27.9294 39.6878 27.1593C38.8481 27.3807 37.4667 26.9962 37.313 28.1907C37.2347 28.8019 39.1657 29.3145 39.3049 29.0617ZM41.8192 26.3697C41.8089 25.6648 41.2086 24.8134 41.8937 24.3223C42.6557 23.7689 43.4033 24.6921 43.1689 25.5825C44.019 25.5311 44.3522 24.3696 45.3115 24.7519C45.6449 24.9277 46.0605 25.1263 45.7256 25.4993C45.0868 26.2205 44.2148 26.4808 43.5561 27.2562C43.3319 27.5141 43.4133 27.945 43.2448 28.2088C43.0836 28.403 43.0471 28.7511 43.2889 29.1285C43.5308 29.5058 43.388 30.1947 43.0034 30.5062C42.681 30.8946 42.0544 30.8288 41.8126 30.4514C41.6183 30.2902 41.6264 30.0799 41.6696 29.8029C41.8423 28.6949 41.8414 27.4982 41.8192 26.3697ZM48.219 25.1138C48.3398 24.6338 48.4716 24.1831 48.5771 23.7156C48.717 23.0546 49.5941 23.1468 50.0881 23.5366C50.1504 23.6135 50.1981 23.8297 50.1079 24.0173C49.612 24.852 49.3659 25.8538 49.2664 26.8005C50.0256 26.81 51.538 26.617 51.1813 27.4664C50.9007 28.1266 49.6579 27.8975 48.92 27.8199C48.7025 28.6839 48.7595 32.5611 48.6116 33.4324C48.5699 33.6955 48.353 33.8839 48.0745 33.8546C47.7404 33.8195 47.6114 33.7074 47.5366 33.3476C47.3276 32.5232 47.8355 28.4943 47.5093 27.7139C46.9378 28.062 45.9002 28.2908 45.7147 27.5112C45.6655 27.3089 45.9037 27.0524 46.1271 26.9351C46.684 26.7262 47.4286 26.8748 47.8052 26.5062C48.1048 26.1998 48.0996 25.5799 48.219 25.1138ZM54.3517 25.7584C55.0032 26.1225 55.8071 26.3759 56.071 27.0793C56.1604 27.2999 55.937 27.6847 55.7736 27.766C55.0167 28.1369 54.2176 26.3637 53.0892 26.9208C52.6577 27.1429 53.2308 27.8507 53.499 27.9774C54.3162 28.373 54.9801 28.7525 55.5716 29.42C55.9344 29.8523 55.7022 30.588 55.3586 31.0446C54.5073 32.1798 51.8751 32.5789 51.2212 30.7646C51.0673 30.3543 51.5721 29.9709 51.9649 29.9841C52.302 29.9913 52.2881 30.5248 52.5395 30.6779C53.1588 31.0809 54.3371 30.8528 54.4205 30.0591C54.441 29.8642 54.0972 29.5184 53.8444 29.3792C52.9554 28.8635 51.9082 28.5141 51.5607 27.5344C51.1348 26.3634 53.4752 25.258 54.3517 25.7584ZM59.0776 28.3807C59.2658 27.5277 58.9798 26.4982 59.478 25.7763C59.6187 25.5096 60.0972 25.3769 60.4819 25.6003C60.6512 25.7307 60.6263 25.9674 60.6029 26.1902C60.3818 27.2227 60.091 28.248 60.2737 29.3229C60.818 28.5637 61.7434 27.6615 62.7254 28.2292C62.9213 29.7138 63.1436 31.2153 62.8521 32.6487C62.7877 32.9938 62.0461 33.0848 61.8343 32.8232C61.179 31.8253 62.0157 30.5618 61.5605 29.4019C60.8527 29.975 60.3002 30.6771 59.8057 31.4979C59.6753 31.6672 59.254 31.7919 59.0231 31.7113C58.9176 31.6439 58.5695 31.6073 58.5871 31.4402C58.6969 30.396 58.8564 29.4133 59.0776 28.3807ZM63.5667 29.0497C63.6838 27.6683 64.8055 26.7727 66.1495 27.111C67.2194 27.3783 68.0982 28.5265 67.9614 29.6946C67.6684 30.3395 66.049 30.7464 65.4672 31.192C65.41 31.2001 65.1448 31.313 65.2137 31.461C65.6117 32.3616 66.5423 32.0793 67.3645 31.7575C67.8277 32.1722 67.4753 32.9797 66.8957 33.0033C66.2589 33.0349 65.5591 33.1303 64.9215 32.7676C63.595 31.9947 63.4541 30.3892 63.5667 29.0497ZM65.0097 29.9193C65.6671 29.9602 66.3266 29.8465 66.6056 29.2001C66.9851 28.5362 65.8675 28.0527 65.2799 28.2865C64.6336 28.5424 64.6785 29.8563 65.0097 29.9193ZM68.6461 29.1894C68.6357 28.4844 68.0354 27.633 68.7205 27.1419C69.4825 26.5885 70.2301 27.5117 69.9958 28.4021C70.8458 28.3507 71.179 27.1892 72.1383 27.5715C72.4718 27.7474 72.8873 27.9459 72.5525 28.3189C71.9136 29.0401 71.0416 29.3004 70.383 30.0758C70.1588 30.3337 70.2402 30.7646 70.0717 31.0284C69.9105 31.2227 69.8739 31.5707 70.1158 31.9481C70.3577 32.3254 70.2149 33.0143 69.8302 33.3258C69.5078 33.7142 68.8813 33.6484 68.6394 33.271C68.4452 33.1098 68.4532 32.8995 68.4964 32.6225C68.6692 31.5145 68.6683 30.3179 68.6461 29.1894ZM72.7855 30.0186C72.9025 28.6373 74.0243 27.7416 75.3683 28.0799C76.4382 28.3472 77.317 29.4954 77.1801 30.6635C76.8871 31.3084 75.2677 31.7153 74.6859 32.161C74.6288 32.169 74.3635 32.2819 74.4324 32.43C74.8305 33.3305 75.7611 33.0482 76.5832 32.7264C77.0464 33.1411 76.6941 33.9487 76.1144 33.9722C75.4777 34.0038 74.7779 34.0992 74.1403 33.7366C72.8138 32.9637 72.6728 31.3582 72.7855 30.0186ZM74.2285 30.8882C74.8858 30.9291 75.5453 30.8154 75.8244 30.1691C76.2039 29.5051 75.0863 29.0216 74.4986 29.2555C73.8523 29.5113 73.8973 30.8252 74.2285 30.8882Z" fill="black"/>
<defs>
<clipPath id="clip0_847_235">
<rect width="28.3944" height="34.4457" fill="white" transform="translate(42.3047 42.6123) rotate(107.943)"/>
</clipPath>
</defs>
</svg>
